# xmcd
#
# Track frame offsets:
#	150
#	13001
#	28304
#	46529
#	59647
#	75015
#	87527
#	101808
#	117624
#	133835
#
# Disc length: 2006 seconds
#
# Revision: 0
# Processed by: cddbd v1.5.1PL0 Copyright (c) Steve Scherf et al.
# Submitted via: audiograbber 1.83.01
#
DISCID=8307d40a
DTITLE=Sammy Kershaw - Haunted Heart
DYEAR=1992
DGENRE=Country
TTITLE0=A Memory That Just Wont Quit
TTITLE1=Queen Of My Doublewide Trailer
TTITLE2=Still Lovin' You
TTITLE3=She Don't Know Shes Beautiful
TTITLE4=I Can't Reach Her Anymore
TTITLE5=Haunted Heart
TTITLE6=Neon Leon
TTITLE7=What Might Have Been
TTITLE8=You've Got A Lock On My Love
TTITLE9=Cry, Cry Darlin
EXTD=
EXTT0=
EXTT1=
EXTT2=
EXTT3=
EXTT4=
EXTT5=
EXTT6=
EXTT7=
EXTT8=
EXTT9=
PLAYORDER=
